<svg width="230" height="118.6" xmlns="http://www.w3.org/2000/svg">
 <metadata id="metadata75">image/svg+xml</metadata>

 <g>
  <title>background</title>
  <rect fill="none" id="canvas_background" height="402" width="582" y="-1" x="-1"/>
 </g>
 <g>
  <title>Layer 1</title>
  <g id="g3">
   <g fill="#ffffff" id="g7">
    <path fill="#ffffff" id="path9" d="m21.9,20.6l0,3.8l1,0c1.4,0 2.5,-0.5 2.5,-1.9c0,-1.4 -1,-1.8 -2.5,-1.8l-1,0l0,-0.1zm0,11.1l-3.5,0l0,-14.2l5.1,0c3.5,0 5.3,2.2 5.3,4.9c0,2.7 -1.8,5 -5.3,5l-1.7,0l0,4.3l0.1,0z"/>
    <path fill="#ffffff" id="path11" d="m32.4,27c0,1.2 0.7,2 1.8,2c1.1,0 1.8,-0.9 1.8,-2c0,-1.2 -0.8,-2 -1.8,-2c-1.1,0 -1.8,0.8 -1.8,2m-3.3,0c0,-2.9 2.2,-4.9 5.1,-4.9c2.8,0 5.1,2.1 5.1,4.9c0,2.9 -2.2,5 -5.1,5c-2.8,0 -5.1,-2.1 -5.1,-5"/>
    <path fill="#ffffff" id="path13" d="m46.8,25.7l-1.2,0c-1.4,0 -1.8,0.5 -1.8,1.7l0,4.3l-3.2,0l0,-9.4l3.1,0l0,1.5c0.4,-1 1.3,-1.6 2.3,-1.6c0.2,0 0.5,0 0.7,0.1l0,3.4l0.1,0z"/>
    <path fill="#ffffff" id="path15" d="m52.1,18.9l0,3.4l1.9,0l0,2.8l-1.9,0l0,3.3c0,0.5 0.5,0.6 0.8,0.6c0.6,0 1.1,-0.1 1.1,-0.1l0,2.8c0,0 -1.5,0.1 -2.3,0.1c-1.5,0 -2.8,-0.4 -2.8,-2.4l0,-4.4l-1.4,0l0,-2.8l1.4,0l0,-3.4l3.2,0l0,0.1z"/>
    <path fill="#ffffff" id="path17" d="m58.3,27c0,1.2 0.7,2 1.8,2c1.1,0 1.8,-0.9 1.8,-2c0,-1.2 -0.8,-2 -1.8,-2c-1,0 -1.8,0.8 -1.8,2m-3.2,0c0,-2.9 2.2,-4.9 5,-4.9c2.8,0 5.1,2.1 5.1,4.9c0,2.9 -2.2,5 -5.1,5c-2.7,0 -5,-2.1 -5,-5"/>
    <path fill="#ffffff" id="path19" d="m68.5,27.9c1.1,0 2,0.9 2,2c0,1.1 -0.9,2 -2,2c-1.1,0 -2,-0.9 -2,-2c0,-1.1 0.9,-2 2,-2"/>
    <path fill="#ffffff" id="path21" d="m31.7,42.3l-1.3,0c-0.8,-2.2 -2.7,-3.6 -5.3,-3.6c-3.5,0 -5.9,2.7 -5.9,6.2c0,3.6 2.4,6.2 5.9,6.2c2.6,0 4.5,-1.4 5.3,-3.6l1.3,0c-0.9,2.9 -3.5,4.7 -6.6,4.7c-4,0 -7.2,-3.1 -7.2,-7.3c0,-4.3 3.2,-7.3 7.2,-7.3c3.1,0 5.7,1.8 6.6,4.7"/>
    <path fill="#ffffff" id="path23" d="m39.2,48.8l0,-1.2c-0.2,0.3 -0.7,0.3 -1.2,0.3l-1.7,0c-1.3,0 -1.9,0.6 -1.9,1.6c0,0.8 0.6,1.7 2.1,1.7c1.4,0 2.7,-0.8 2.7,-2.4m0.5,-7.5l-1.3,0l-1.3,-2.3l-1.3,2.3l-1.3,0l1.8,-3.2l1.7,0l1.7,3.2zm-0.5,4.5c0,-1.4 -1.1,-1.9 -2.2,-1.9c-1.1,0 -2,0.5 -2.7,1l-0.7,-0.9c0.6,-0.5 1.9,-1.1 3.4,-1.1c2.1,0 3.4,1.2 3.4,3l0,6.1l-1.2,0l0,-1.1c-0.5,0.9 -1.7,1.4 -2.8,1.4c-1.9,0 -3.2,-1.1 -3.2,-2.7c0,-1.6 1.2,-2.6 3,-2.6l2.1,0c0.6,0 0.9,-0.3 0.9,-0.8l0,-0.4z"/>
    <path fill="#ffffff" id="path25" d="m50.6,46.4l0,5.6l-1.2,0l0,-5.9c0,-1.4 -0.8,-2.1 -2.1,-2.1c-1.1,0 -2,0.6 -2.8,1.6l0,6.4l-1.2,0l0,-8.9l1.2,0l0,1.3c0.8,-0.9 1.7,-1.5 3,-1.5c1.5,0 2.5,0.7 2.9,1.7c1,-1.2 2,-1.7 3.3,-1.7c2.1,0 3.2,1.3 3.2,3.2l0,5.9l-1.2,0l0,-5.9c0,-1.4 -0.8,-2.1 -2.1,-2.1c-1.1,0 -2,0.6 -2.9,1.6c-0.1,0.2 -0.1,0.5 -0.1,0.8"/>
    <path fill="#ffffff" id="path27" d="m64.9,48.8l0,-1.2c-0.2,0.3 -0.7,0.3 -1.2,0.3l-1.7,0c-1.3,0 -1.9,0.6 -1.9,1.6c0,0.8 0.6,1.7 2.1,1.7c1.4,0 2.7,-0.8 2.7,-2.4m0,-3c0,-1.4 -1.1,-1.9 -2.2,-1.9c-1.1,0 -2,0.5 -2.7,1l-0.7,-0.9c0.6,-0.5 1.9,-1.1 3.4,-1.1c2.1,0 3.4,1.2 3.4,3l0,6.1l-1.2,0l0,-1.1c-0.5,0.9 -1.7,1.4 -2.8,1.4c-1.9,0 -3.2,-1.1 -3.2,-2.7c0,-1.6 1.2,-2.6 3,-2.6l2.1,0c0.6,0 0.9,-0.3 0.9,-0.8l0,-0.4z"/>
    <path fill="#ffffff" id="path29" d="m73.4,44.2l-0.6,0c-1.6,0 -2.7,0.7 -2.7,2.8l0,5l-1.2,0l0,-8.9l1.1,0l0,1.5c0.5,-1.2 1.6,-1.7 2.7,-1.7c0.2,0 0.4,0 0.7,0l0,1.3z"/>
    <path fill="#ffffff" id="path31" d="m80.5,48.8l0,-1.2c-0.2,0.3 -0.7,0.3 -1.2,0.3l-1.7,0c-1.3,0 -1.9,0.6 -1.9,1.6c0,0.8 0.6,1.7 2.1,1.7c1.4,0 2.7,-0.8 2.7,-2.4m0,-3c0,-1.4 -1.1,-1.9 -2.2,-1.9c-1.1,0 -2,0.5 -2.7,1l-0.7,-0.9c0.6,-0.5 1.9,-1.1 3.4,-1.1c2.1,0 3.4,1.2 3.4,3l0,6.1l-1.2,0l0,-1.1c-0.5,0.9 -1.7,1.4 -2.8,1.4c-1.9,0 -3.2,-1.1 -3.2,-2.7c0,-1.6 1.2,-2.6 3,-2.6l2.1,0c0.6,0 0.9,-0.3 0.9,-0.8l0,-0.4z"/>
    <polygon fill="#ffffff" id="polygon33" points="30,58.1 31.9,58.1 31.9,72.3 30.7,72.3 30.7,59.6 26,69.6 24.7,69.6 20.1,59.6 20.1,72.3     18.9,72.3 18.9,58.1 20.8,58.1 25.4,68.1   "/>
    <path fill="#ffffff" id="path35" d="m35.1,69.1l0,-5.8l1.2,0l0,5.7c0,1.6 1.1,2.5 2.6,2.5c1.5,0 2.6,-0.8 2.6,-2.5l0,-5.6l1.2,0l0,5.8c0,1.9 -1.3,3.4 -3.8,3.4c-2.5,-0.1 -3.8,-1.6 -3.8,-3.5"/>
    <path fill="#ffffff" id="path37" d="m51.8,66.4c0,-1.4 -0.9,-2.2 -2.2,-2.2c-1.1,0 -2.1,0.6 -3,1.6l0,6.5l-1.2,0l0,-8.9l1.2,0l0,1.3c0.8,-1 1.9,-1.5 3.2,-1.5c2.1,0 3.2,1.3 3.2,3.2l0,5.9l-1.2,0l0,-5.9z"/>
    <path fill="#ffffff" id="path39" d="m56.7,59c0.6,0 1.1,0.5 1.1,1.1c0,0.6 -0.5,1.1 -1.1,1.1c-0.6,0 -1.1,-0.5 -1.1,-1.1c0,-0.6 0.5,-1.1 1.1,-1.1m0.7,13.3l-1.2,0l0,-7.9l-1.4,0l0,-1l2.6,0l0,8.9z"/>
    <path fill="#ffffff" id="path41" d="m64.2,71.5c1.3,0 2.4,-0.7 2.9,-1.8l1,0.6c-0.7,1.4 -2.3,2.3 -4,2.3c-2.6,0 -4.6,-2 -4.6,-4.7c0,-2.7 2,-4.7 4.6,-4.7c1.7,0 3.2,0.9 4,2.3l-1,0.6c-0.5,-1.1 -1.6,-1.8 -2.9,-1.8c-2,0 -3.4,1.6 -3.4,3.6c0.1,2 1.4,3.6 3.4,3.6"/>
    <path fill="#ffffff" id="path43" d="m71.2,59c0.6,0 1.1,0.5 1.1,1.1c0,0.6 -0.5,1.1 -1.1,1.1c-0.6,0 -1.1,-0.5 -1.1,-1.1c0,-0.6 0.5,-1.1 1.1,-1.1m0.7,13.3l-1.2,0l0,-7.9l-1.4,0l0,-1l2.6,0l0,8.9z"/>
    <path fill="#ffffff" id="path45" d="m79.3,64.2c-2,0 -3.4,1.6 -3.4,3.6c0,2 1.4,3.6 3.4,3.6c2,0 3.4,-1.6 3.4,-3.6c-0.1,-2 -1.4,-3.6 -3.4,-3.6m-3.3,6.4l0,5.2l-1.2,0l0,-12.5l1.2,0l0,1.7c0.5,-1.1 1.9,-2 3.4,-2c2.5,0 4.5,2 4.5,4.7c0,2.7 -2,4.7 -4.5,4.7c-1.5,0.1 -2.9,-0.7 -3.4,-1.8"/>
    <path fill="#ffffff" id="path47" d="m91.4,69.1l0,-1.2c-0.2,0.3 -0.7,0.3 -1.2,0.3l-1.7,0c-1.3,0 -1.9,0.6 -1.9,1.6c0,0.8 0.6,1.7 2.1,1.7c1.4,0 2.7,-0.8 2.7,-2.4m0,-3c0,-1.4 -1.1,-1.9 -2.2,-1.9c-1.1,0 -2,0.5 -2.7,1l-0.6,-0.9c0.6,-0.5 1.9,-1.1 3.4,-1.1c2.1,0 3.4,1.2 3.4,3l0,6.1l-1.2,0l0,-1.1c-0.5,0.9 -1.7,1.4 -2.8,1.4c-1.9,0 -3.2,-1.1 -3.2,-2.7c0,-1.6 1.2,-2.6 3,-2.6l2.1,0c0.6,0 0.9,-0.3 0.9,-0.8l0,-0.4l-0.1,0z"/>
    <rect fill="#ffffff" id="rect49" height="14.2" width="1.2" y="58.1" x="95.4"/>
    <g fill="#ffffff" id="g51">
     <path fill="#ffffff" id="path53" d="m230,0l-230,0l0,118.6l230,0l0,-118.6zm-6.2,6.2l0,64l-35.8,0l0,-40.3l-17.1,-17.2l-17.1,17.2l0,40.3l-35.7,0l0,-64l105.7,0zm-111.9,106.1l-105.7,0l0,-106.1l105.7,0l0,106.1zm111.9,-30.4l0,0l0,14l0,0l0,5.3l0,0l0,11.1l-7.8,0l0,-11.1l-6.2,0l0,11.1l-7.8,0l0,-11.1l-6.2,0l0,11.1l-7.8,0l0,-11.1l-6.2,0l0,11.1l-7.8,0l0,-11.1l-6.2,0l0,11.1l-7.8,0l0,-11.1l-6.2,0l0,11.1l-7.8,0l0,-11.1l-6.2,0l0,11.1l-7.8,0l0,-11.1l-6.2,0l0,11.1l-7.8,0l0,-35.9l42,0l0,-43.9l10.9,-10.9l10.9,10.9l0,43.9l42,0l0,5.5z"/>
     <rect fill="#ffffff" id="rect55" height="14" width="6.2" y="81.9" x="209.8"/>
     <rect fill="#ffffff" id="rect57" height="14" width="6.2" y="81.9" x="195.8"/>
     <rect fill="#ffffff" id="rect59" height="14" width="6.2" y="81.9" x="181.8"/>
     <rect fill="#ffffff" id="rect61" height="14" width="6.2" y="81.9" x="167.8"/>
     <rect fill="#ffffff" id="rect63" height="14" width="6.2" y="37.4" x="167.5"/>
     <rect fill="#ffffff" id="rect65" height="14" width="6.2" y="81.9" x="153.9"/>
     <rect fill="#ffffff" id="rect67" height="14" width="6.2" y="81.9" x="139.9"/>
     <rect fill="#ffffff" id="rect69" height="14" width="6.2" y="81.9" x="125.9"/>
    </g>
   </g>
  </g>
  <rect stroke="#000" id="svg_1" height="105" width="213.999995" y="7.999988" x="6.5" stroke-width="1.5" fill="#fff"/>
  <text xml:space="preserve" text-anchor="start" font-family="Helvetica, Arial, sans-serif" font-size="24" id="svg_2" y="59.999988" x="53.5" fill-opacity="null" stroke-opacity="null" stroke-width="0" stroke="#000" fill="#000000">LOGO</text>
 </g>
</svg>